<svg width="8" height="22" viewBox="0 0 8 22" fill="none" xmlns="http://www.w3.org/2000/svg">
<path d="M4 8V21M4 21L7 18M4 21L1 18M4 5C3.46957 5 2.96086 4.78929 2.58579 4.41421C2.21071 4.03914 2 3.53043 2 3C2 2.46957 2.21071 1.96086 2.58579 1.58579C2.96086 1.21071 3.46957 1 4 1C4.53043 1 5.03914 1.21071 5.41421 1.58579C5.78929 1.96086 6 2.46957 6 3C6 3.53043 5.78929 4.03914 5.41421 4.41421C5.03914 4.78929 4.53043 5 4 5Z" stroke="white" stroke-width="1.17434" stroke-linecap="round" stroke-linejoin="round"/>
</svg>
