<svg width="512" height="512" viewBox="0 0 512 512" fill="none" xmlns="http://www.w3.org/2000/svg">
<path fill-rule="evenodd" clip-rule="evenodd" d="M451 0H60C26.3106 0 -1 27.3106 -1 61V451C-1 484.689 26.3106 512 60 512H451C484.689 512 512 484.689 512 451V61C512 27.3106 484.689 0 451 0ZM487 96V426C487 459.689 459.689 487 426 487H85C51.3106 487 24 459.689 24 426V96L487 96ZM33 46.5C33 62.2401 45.7599 75 61.5 75C77.2401 75 90 62.2401 90 46.5C90 30.7599 77.2401 18 61.5 18C45.7599 18 33 30.7599 33 46.5ZM132.5 75C116.76 75 104 62.2401 104 46.5C104 30.7599 116.76 18 132.5 18C148.24 18 161 30.7599 161 46.5C161 62.2401 148.24 75 132.5 75ZM175 46.5C175 62.2401 187.76 75 203.5 75C219.24 75 232 62.2401 232 46.5C232 30.7599 219.24 18 203.5 18C187.76 18 175 30.7599 175 46.5Z" fill="white"/>
</svg>
