<svg width="511" height="512" viewBox="0 0 511 512" fill="none" xmlns="http://www.w3.org/2000/svg">
<path fill-rule="evenodd" clip-rule="evenodd" d="M255 512C113.615 512 -1 397.385 -1 256C-1 114.615 113.615 0 255 0C396.385 0 511 114.615 511 256C511 397.385 396.385 512 255 512ZM233.714 189.968V428.577C233.714 440.409 243.306 450 255.137 450C266.968 450 276.56 440.409 276.56 428.577V189.968C276.56 178.137 266.968 168.545 255.137 168.545C243.306 168.545 233.714 178.137 233.714 189.968ZM233.896 113.024C239.947 118.766 247.149 121.636 255.5 121.636C263.851 121.636 270.992 118.766 276.923 113.024C282.974 107.283 286 100.381 286 92.3182C286 84.2557 282.974 77.3537 276.923 71.6122C270.992 65.8707 263.851 63 255.5 63C247.149 63 239.947 65.8707 233.896 71.6122C227.965 77.3537 225 84.2557 225 92.3182C225 100.381 227.965 107.283 233.896 113.024Z" fill="white"/>
</svg>
