<svg width="512" height="512" viewBox="0 0 512 512" fill="none" xmlns="http://www.w3.org/2000/svg">
<g clip-path="url(#clip0_102_87)">
<g filter="url(#filter0_f_102_87)">
<path d="M201.437 241.437L156.105 121.407C154.194 116.348 149.351 113 143.943 113H116.995C111.581 113 106.735 116.355 104.828 121.422L55.1487 253.444L103.71 249.458L118.195 207.427C122.221 195.746 138.739 195.74 142.773 207.418L155.817 245.181L201.437 241.437Z" fill="white"/>
<path d="M18.7818 400H42.5605C48.1077 400 53.0437 396.48 54.8511 391.236L71.9744 341.548C73.7818 336.304 78.7178 332.784 84.265 332.784H176.813C182.357 332.784 187.29 336.299 189.1 341.539L206.269 391.244C208.079 396.484 213.013 400 218.557 400H242.515C251.605 400 257.888 390.91 254.677 382.407L212.789 271.495L163.509 267.45L166.571 276.313C169.487 284.756 163.215 293.558 154.283 293.558H106.743C97.8145 293.558 91.5435 284.764 94.4526 276.322L99.3254 262.182L53.2823 258.403L6.61475 382.422C3.41586 390.923 9.69887 400 18.7818 400Z" fill="white"/>
<path d="M499.854 380.202L444.849 290.541L344.148 282.276L283.945 380.191C278.62 388.853 284.852 400 295.02 400H322.058C326.673 400 330.942 397.553 333.275 393.571L380.765 312.508C385.786 303.936 398.177 303.936 403.199 312.508L450.688 393.571C453.021 397.553 457.29 400 461.905 400H488.773C498.936 400 505.168 388.864 499.854 380.202Z" fill="white"/>
<path d="M380.745 198.355L334.845 119.463C332.518 115.461 328.238 113 323.609 113H297.122C286.968 113 280.734 124.12 286.031 132.782L345.258 229.633L443.594 221.562L497.769 132.771C503.055 124.108 496.82 113 486.672 113H460.354C455.725 113 451.446 115.461 449.118 119.463L403.218 198.355C398.205 206.971 385.758 206.971 380.745 198.355Z" fill="white"/>
</g>
<path d="M201.437 241.437L156.105 121.407C154.194 116.348 149.351 113 143.943 113H116.995C111.581 113 106.735 116.355 104.828 121.422L55.1487 253.444L103.71 249.458L118.195 207.427C122.221 195.746 138.739 195.74 142.773 207.418L155.817 245.181L201.437 241.437Z" fill="white"/>
<path d="M18.7818 400H42.5605C48.1077 400 53.0437 396.48 54.8511 391.236L71.9744 341.548C73.7818 336.304 78.7178 332.784 84.265 332.784H176.813C182.357 332.784 187.29 336.299 189.1 341.539L206.269 391.244C208.079 396.484 213.013 400 218.557 400H242.515C251.605 400 257.888 390.91 254.677 382.407L212.789 271.495L163.509 267.45L166.571 276.313C169.487 284.756 163.215 293.558 154.283 293.558H106.743C97.8145 293.558 91.5435 284.764 94.4526 276.322L99.3254 262.182L53.2823 258.403L6.61475 382.422C3.41586 390.923 9.69887 400 18.7818 400Z" fill="white"/>
<path d="M499.854 380.202L444.849 290.541L344.148 282.276L283.945 380.191C278.62 388.853 284.852 400 295.02 400H322.058C326.673 400 330.942 397.553 333.275 393.571L380.765 312.508C385.786 303.936 398.177 303.936 403.199 312.508L450.688 393.571C453.021 397.553 457.29 400 461.905 400H488.773C498.936 400 505.168 388.864 499.854 380.202Z" fill="white"/>
<path d="M380.745 198.355L334.845 119.463C332.518 115.461 328.238 113 323.609 113H297.122C286.968 113 280.734 124.12 286.031 132.782L345.258 229.633L443.594 221.562L497.769 132.771C503.055 124.108 496.82 113 486.672 113H460.354C455.725 113 451.446 115.461 449.118 119.463L403.218 198.355C398.205 206.971 385.758 206.971 380.745 198.355Z" fill="white"/>
</g>
<defs>
<filter id="filter0_f_102_87" x="-1.82998" y="105.4" width="511.224" height="302.2" filterUnits="userSpaceOnUse" color-interpolation-filters="sRGB">
<feFlood flood-opacity="0" result="BackgroundImageFix"/>
<feBlend mode="normal" in="SourceGraphic" in2="BackgroundImageFix" result="shape"/>
<feGaussianBlur stdDeviation="3.8" result="effect1_foregroundBlur_102_87"/>
</filter>
<clipPath id="clip0_102_87">
<rect width="512" height="512" fill="white"/>
</clipPath>
</defs>
</svg>
